<svg width="261" height="72" viewBox="0 0 261 72" fill="none" xmlns="http://www.w3.org/2000/svg">
<rect x="0.5" y="0.5" width="260" height="71" stroke="#231F20"/>
<path d="M246.08 33L235.52 40L225.92 33" stroke="#231F20" stroke-width="2"/>
<path fill-rule="evenodd" clip-rule="evenodd" d="M28.5814 22.5239H30.8569C31.4505 22.5239 32.0441 22.0278 32.0441 21.3334V16.8691C32.0441 16.2739 31.5494 15.7778 30.8569 15.7778H28.5814C27.9878 15.7778 27.3942 16.2739 27.3942 16.8691V21.3334C27.3942 22.0278 27.9878 22.5239 28.5814 22.5239Z" fill="#231F20"/>
<path fill-rule="evenodd" clip-rule="evenodd" d="M52.2267 20.2421H51.1385V21.3334C51.1385 22.6231 50.1491 23.6151 48.863 23.6151H46.5875C45.4003 23.7143 44.4109 22.7223 44.4109 21.4326V20.2421H33.0334V21.3334C33.0334 22.6231 32.0441 23.6151 30.7579 23.6151H28.5814C27.2952 23.7143 26.3059 22.7223 26.3059 21.4326V20.2421H25.1187C22.6453 20.2421 20.6666 22.3255 20.6666 24.8056V47.4247C20.6666 49.9048 22.6453 51.8889 25.1187 51.8889H52.2267C54.7001 51.8889 56.7777 49.9048 56.7777 47.4247V24.8056C56.7777 22.3255 54.799 20.2421 52.2267 20.2421ZM54.5022 47.4247C54.5022 48.6151 53.5129 49.7064 52.2267 49.7064H25.1187C23.9315 49.7064 22.8432 48.7143 22.8432 47.4247V29.3691C22.8432 28.1786 23.8325 27.0874 25.1187 27.0874C29.0761 27.0874 54.5022 25.004 54.5022 29.3691V47.4247Z" fill="#231F20"/>
<path fill-rule="evenodd" clip-rule="evenodd" d="M46.5875 22.5239H48.863C49.4566 22.5239 49.9513 22.0278 49.9513 21.3334V16.8691C49.9513 16.2739 49.4566 15.7778 48.863 15.7778H46.5875C45.9939 15.7778 45.4992 16.2739 45.4992 16.8691V21.3334C45.4992 22.0278 45.9939 22.5239 46.5875 22.5239Z" fill="#231F20"/>
<path d="M37.1577 40.9305L35.666 35.0018V41.4257C35.666 41.7811 35.5856 42.0477 35.4248 42.2255C35.2682 42.4032 35.0588 42.4921 34.7964 42.4921C34.5425 42.4921 34.3351 42.4053 34.1743 42.2318C34.0135 42.0541 33.9331 41.7854 33.9331 41.4257V34.0624C33.9331 33.6561 34.0389 33.3832 34.2505 33.2435C34.4621 33.0997 34.7477 33.0277 35.1074 33.0277H35.6914C36.0426 33.0277 36.2965 33.0594 36.4531 33.1229C36.6139 33.1864 36.7324 33.3007 36.8086 33.4657C36.8848 33.6307 36.9715 33.8995 37.0688 34.2719L38.4209 39.369L39.7729 34.2719C39.8703 33.8995 39.957 33.6307 40.0332 33.4657C40.1094 33.3007 40.2257 33.1864 40.3823 33.1229C40.5431 33.0594 40.7992 33.0277 41.1504 33.0277H41.7344C42.0941 33.0277 42.3797 33.0997 42.5913 33.2435C42.8029 33.3832 42.9087 33.6561 42.9087 34.0624V41.4257C42.9087 41.7811 42.8283 42.0477 42.6675 42.2255C42.5109 42.4032 42.2993 42.4921 42.0327 42.4921C41.783 42.4921 41.5778 42.4032 41.417 42.2255C41.2562 42.0477 41.1758 41.7811 41.1758 41.4257V35.0018L39.6841 40.9305C39.5868 41.3156 39.5063 41.5992 39.4429 41.7811C39.3836 41.9589 39.2715 42.1218 39.1064 42.2699C38.9414 42.418 38.7129 42.4921 38.4209 42.4921C38.2008 42.4921 38.0146 42.4434 37.8623 42.3461C37.71 42.253 37.5915 42.1324 37.5068 41.9843C37.4222 41.8361 37.3545 41.6732 37.3037 41.4955C37.2572 41.3135 37.2085 41.1252 37.1577 40.9305Z" fill="#231F20"/>
<path d="M37.1577 40.9305L36.6728 41.0525L36.6739 41.0568L37.1577 40.9305ZM35.666 35.0018L36.1509 34.8798L35.166 35.0018H35.666ZM35.4248 42.2255L35.054 41.89L35.0496 41.8949L35.4248 42.2255ZM34.1743 42.2318L33.8035 42.5673L33.8076 42.5717L34.1743 42.2318ZM34.2505 33.2435L34.5259 33.6609L34.5316 33.657L34.2505 33.2435ZM36.4531 33.1229L36.2653 33.5863L36.2695 33.588L36.4531 33.1229ZM37.0688 34.2719L36.5851 34.3983L36.5856 34.4L37.0688 34.2719ZM38.4209 39.369L37.9376 39.4972L38.4209 41.3192L38.9042 39.4972L38.4209 39.369ZM39.7729 34.2719L40.2562 34.4L40.2567 34.3983L39.7729 34.2719ZM40.3823 33.1229L40.1987 32.6578L40.1945 32.6596L40.3823 33.1229ZM42.5913 33.2435L42.3101 33.657L42.3159 33.6608L42.5913 33.2435ZM42.6675 42.2255L42.2967 41.89L42.2923 41.8949L42.6675 42.2255ZM41.1758 35.0018H41.6758L40.6909 34.8798L41.1758 35.0018ZM39.6841 40.9305L40.1688 41.0531L40.169 41.0525L39.6841 40.9305ZM39.4429 41.7811L38.9707 41.6164L38.9685 41.623L39.4429 41.7811ZM37.8623 42.3461L38.1316 41.9246L38.123 41.9194L37.8623 42.3461ZM37.3037 41.4955L36.8191 41.6194L36.8229 41.6328L37.3037 41.4955ZM37.6426 40.8085L36.1509 34.8798L35.1811 35.1238L36.6728 41.0525L37.6426 40.8085ZM35.166 35.0018V41.4257H36.166V35.0018H35.166ZM35.166 41.4257C35.166 41.7157 35.0993 41.84 35.054 41.89L35.7956 42.5609C36.0719 42.2555 36.166 41.8465 36.166 41.4257H35.166ZM35.0496 41.8949C34.9988 41.9526 34.9325 41.9921 34.7964 41.9921V42.9921C35.185 42.9921 35.5376 42.8538 35.8 42.556L35.0496 41.8949ZM34.7964 41.9921C34.6702 41.9921 34.5997 41.9552 34.541 41.8919L33.8076 42.5717C34.0705 42.8554 34.4147 42.9921 34.7964 42.9921V41.9921ZM34.5451 41.8964C34.5006 41.8472 34.4331 41.7218 34.4331 41.4257H33.4331C33.4331 41.8489 33.5264 42.2609 33.8035 42.5673L34.5451 41.8964ZM34.4331 41.4257V34.0624H33.4331V41.4257H34.4331ZM34.4331 34.0624C34.4331 33.7197 34.5236 33.6623 34.5259 33.6608L33.9751 32.8262C33.5542 33.104 33.4331 33.5925 33.4331 34.0624H34.4331ZM34.5316 33.657C34.6329 33.5881 34.8088 33.5277 35.1074 33.5277V32.5277C34.6867 32.5277 34.2912 32.6112 33.9693 32.8301L34.5316 33.657ZM35.1074 33.5277H35.6914V32.5277H35.1074V33.5277ZM35.6914 33.5277C36.0327 33.5277 36.2038 33.5614 36.2653 33.5863L36.641 32.6596C36.3893 32.5575 36.0526 32.5277 35.6914 32.5277V33.5277ZM36.2695 33.588C36.3041 33.6016 36.3293 33.6204 36.3546 33.6752L37.2626 33.2562C37.1356 32.981 36.9238 32.7712 36.6367 32.6578L36.2695 33.588ZM36.3546 33.6752C36.4111 33.7977 36.4889 34.0302 36.5851 34.3983L37.5526 34.1454C37.4541 33.7687 37.3584 33.4638 37.2626 33.2562L36.3546 33.6752ZM36.5856 34.4L37.9376 39.4972L38.9042 39.2408L37.5521 34.1437L36.5856 34.4ZM38.9042 39.4972L40.2562 34.4L39.2897 34.1437L37.9376 39.2408L38.9042 39.4972ZM40.2567 34.3983C40.3529 34.0302 40.4307 33.7977 40.4872 33.6752L39.5792 33.2562C39.4834 33.4638 39.3876 33.7687 39.2892 34.1454L40.2567 34.3983ZM40.4872 33.6752C40.5145 33.616 40.5408 33.5982 40.5702 33.5863L40.1945 32.6596C39.9107 32.7746 39.7042 32.9854 39.5792 33.2562L40.4872 33.6752ZM40.5659 33.588C40.6344 33.561 40.8107 33.5277 41.1504 33.5277V32.5277C40.7876 32.5277 40.4518 32.5579 40.1987 32.6578L40.5659 33.588ZM41.1504 33.5277H41.7344V32.5277H41.1504V33.5277ZM41.7344 33.5277C42.033 33.5277 42.2089 33.5881 42.3102 33.657L42.8725 32.8301C42.5506 32.6112 42.1551 32.5277 41.7344 32.5277V33.5277ZM42.3159 33.6608C42.3182 33.6623 42.4087 33.7197 42.4087 34.0624H43.4087C43.4087 33.5925 43.2876 33.104 42.8667 32.8262L42.3159 33.6608ZM42.4087 34.0624V41.4257H43.4087V34.0624H42.4087ZM42.4087 41.4257C42.4087 41.7157 42.342 41.84 42.2967 41.89L43.0382 42.5609C43.3146 42.2555 43.4087 41.8465 43.4087 41.4257H42.4087ZM42.2923 41.8949C42.2432 41.9507 42.1758 41.9921 42.0327 41.9921V42.9921C42.4228 42.9921 42.7786 42.8557 43.0427 42.556L42.2923 41.8949ZM42.0327 41.9921C41.9177 41.9921 41.8494 41.9581 41.7878 41.89L41.0462 42.5609C41.3062 42.8483 41.6484 42.9921 42.0327 42.9921V41.9921ZM41.7878 41.89C41.7425 41.84 41.6758 41.7157 41.6758 41.4257H40.6758C40.6758 41.8465 40.7699 42.2555 41.0462 42.5609L41.7878 41.89ZM41.6758 41.4257V35.0018H40.6758V41.4257H41.6758ZM40.6909 34.8798L39.1992 40.8085L40.169 41.0525L41.6607 35.1238L40.6909 34.8798ZM39.1993 40.808C39.1027 41.1905 39.0266 41.4563 38.9708 41.6164L39.915 41.9458C39.9861 41.742 40.0708 41.4408 40.1688 41.0531L39.1993 40.808ZM38.9685 41.623C38.9414 41.7045 38.8849 41.7969 38.7725 41.8978L39.4404 42.642C39.6581 42.4466 39.8259 42.2132 39.9172 41.9392L38.9685 41.623ZM38.7725 41.8978C38.7251 41.9403 38.6295 41.9921 38.4209 41.9921V42.9921C38.7963 42.9921 39.1577 42.8957 39.4404 42.642L38.7725 41.8978ZM38.4209 41.9921C38.2754 41.9921 38.1875 41.9605 38.1315 41.9247L37.5931 42.7674C37.8418 42.9263 38.1263 42.9921 38.4209 42.9921V41.9921ZM38.123 41.9194C38.0391 41.8682 37.9818 41.8076 37.941 41.7362L37.0727 42.2323C37.2011 42.4571 37.3808 42.6378 37.6016 42.7727L38.123 41.9194ZM37.941 41.7362C37.8778 41.6257 37.8251 41.5004 37.7845 41.3581L36.8229 41.6328C36.8839 41.846 36.9666 42.0465 37.0727 42.2323L37.941 41.7362ZM37.7881 41.3716C37.7414 41.1888 37.6925 40.9997 37.6415 40.8043L36.6739 41.0568C36.7245 41.2507 36.773 41.4383 36.8193 41.6194L37.7881 41.3716Z" fill="#231F20"/>
<path d="M75.22 43L71.496 31.467H71.42C71.4453 31.7203 71.4643 32.0623 71.477 32.493C71.5023 32.9237 71.5213 33.386 71.534 33.88C71.5593 34.374 71.572 34.8617 71.572 35.343V43H69.653V29.434H72.617L76.189 40.321H76.246L79.875 29.434H82.839V43H80.825V35.229C80.825 34.7857 80.8313 34.3297 80.844 33.861C80.8567 33.3797 80.8757 32.93 80.901 32.512C80.9263 32.094 80.9453 31.752 80.958 31.486H80.882L77.063 43H75.22ZM89.8337 32.569C90.6823 32.569 91.417 32.759 92.0377 33.139C92.6583 33.5063 93.1333 34.0383 93.4627 34.735C93.8047 35.4317 93.9757 36.255 93.9757 37.205V38.307H87.5347C87.56 39.3583 87.8133 40.1627 88.2947 40.72C88.776 41.2773 89.4537 41.556 90.3277 41.556C90.9483 41.556 91.4993 41.499 91.9807 41.385C92.4747 41.2583 92.975 41.0747 93.4817 40.834V42.506C93.0003 42.734 92.5063 42.905 91.9997 43.019C91.5057 43.133 90.904 43.19 90.1947 43.19C89.27 43.19 88.4467 42.9937 87.7247 42.601C87.0027 42.2083 86.439 41.6257 86.0337 40.853C85.6283 40.0677 85.4257 39.105 85.4257 37.965C85.4257 36.8123 85.6093 35.837 85.9767 35.039C86.344 34.241 86.857 33.633 87.5157 33.215C88.187 32.7843 88.9597 32.569 89.8337 32.569ZM89.8337 34.127C89.1877 34.127 88.6683 34.3613 88.2757 34.83C87.883 35.2987 87.655 35.9637 87.5917 36.825H91.9427C91.9427 36.293 91.8667 35.8243 91.7147 35.419C91.5627 35.0137 91.3283 34.697 91.0117 34.469C90.7077 34.241 90.315 34.127 89.8337 34.127ZM100.245 43.19C99.3457 43.19 98.5541 43.0063 97.8701 42.639C97.1987 42.2717 96.6731 41.7017 96.2931 40.929C95.9257 40.1437 95.7421 39.1493 95.7421 37.946C95.7421 36.6793 95.9447 35.6533 96.3501 34.868C96.7554 34.0827 97.3064 33.5063 98.0031 33.139C98.6997 32.759 99.4977 32.569 100.397 32.569C100.929 32.569 101.436 32.6323 101.917 32.759C102.411 32.873 102.816 33.006 103.133 33.158L102.506 34.773C102.189 34.6463 101.847 34.5323 101.48 34.431C101.113 34.3297 100.764 34.279 100.435 34.279C99.8524 34.279 99.3711 34.4183 98.9911 34.697C98.6237 34.963 98.3451 35.3683 98.1551 35.913C97.9651 36.445 97.8701 37.1163 97.8701 37.927C97.8701 38.6997 97.9651 39.352 98.1551 39.884C98.3451 40.416 98.6237 40.8213 98.9911 41.1C99.3711 41.366 99.8271 41.499 100.359 41.499C100.878 41.499 101.341 41.4357 101.746 41.309C102.164 41.1823 102.55 41.0177 102.905 40.815V42.563C102.55 42.7783 102.164 42.9367 101.746 43.038C101.328 43.1393 100.828 43.19 100.245 43.19ZM106.132 43H103.833L106.512 38.782C106.157 38.6553 105.821 38.478 105.505 38.25C105.188 38.022 104.928 37.7053 104.726 37.3C104.536 36.8947 104.441 36.4007 104.441 35.818C104.441 34.83 104.77 34.0763 105.429 33.557C106.087 33.025 106.968 32.759 108.07 32.759H112.478V43H110.426V39.01H108.469L106.132 43ZM106.455 35.837C106.455 36.3817 106.632 36.7933 106.987 37.072C107.341 37.338 107.848 37.471 108.507 37.471H110.426V34.317H108.241C107.607 34.317 107.151 34.4627 106.873 34.754C106.594 35.0453 106.455 35.4063 106.455 35.837ZM125.456 46.591H123.537V43H115.367V32.759H117.419V41.385H121.884V32.759H123.955V41.404H125.456V46.591Z" fill="black"/>
</svg>
