<svg width="23" height="24" viewBox="0 0 23 24" fill="none" xmlns="http://www.w3.org/2000/svg">
<path fill-rule="evenodd" clip-rule="evenodd" d="M6.86587 6.36264H8.01324C8.31256 6.36264 8.61187 6.11538 8.61187 5.76923V3.54396C8.61187 3.24725 8.36244 3 8.01324 3H6.86587C6.56655 3 6.26724 3.24725 6.26724 3.54396V5.76923C6.26724 6.11538 6.56655 6.36264 6.86587 6.36264Z" fill="#231F20"/>
<path fill-rule="evenodd" clip-rule="evenodd" d="M18.7886 5.22527H18.2398V5.76923C18.2398 6.41209 17.741 6.90659 17.0925 6.90659H15.9451C15.3465 6.95604 14.8476 6.46154 14.8476 5.81868V5.22527H9.11073V5.76923C9.11073 6.41209 8.61187 6.90659 7.96336 6.90659H6.86587C6.21735 6.95604 5.71849 6.46154 5.71849 5.81868V5.22527H5.11986C3.87272 5.22527 2.875 6.26374 2.875 7.5V18.7747C2.875 20.011 3.87272 21 5.11986 21H18.7886C20.0357 21 21.0833 20.011 21.0833 18.7747V7.5C21.0833 6.26374 20.0856 5.22527 18.7886 5.22527ZM19.936 18.7747C19.936 19.3681 19.4371 19.9121 18.7886 19.9121H5.11986C4.52123 19.9121 3.97249 19.4176 3.97249 18.7747V9.77472C3.97249 9.18132 4.47135 8.63736 5.11986 8.63736C7.1153 8.63736 19.936 7.5989 19.936 9.77472V18.7747Z" fill="#231F20"/>
<path fill-rule="evenodd" clip-rule="evenodd" d="M15.9451 6.36264H17.0925C17.3918 6.36264 17.6412 6.11538 17.6412 5.76923V3.54396C17.6412 3.24725 17.3918 3 17.0925 3H15.9451C15.6458 3 15.3963 3.24725 15.3963 3.54396V5.76923C15.3963 6.11538 15.6458 6.36264 15.9451 6.36264Z" fill="#231F20"/>
</svg>
