<svg width="261" height="72" viewBox="0 0 261 72" fill="none" xmlns="http://www.w3.org/2000/svg">
<rect x="0.5" y="0.5" width="260" height="71" stroke="#231F20"/>
<path d="M246.08 33L235.52 40L225.92 33" stroke="#231F20" stroke-width="2"/>
<circle cx="38.0001" cy="36.0001" r="19.2222" stroke="#231F20" stroke-width="2"/>
<g clip-path="url(#clip0_44_186)">
<path d="M39.1138 30.452C41.4652 30.452 43.3216 29.0933 43.3216 27.3722C43.3216 25.6512 41.4652 24.2925 39.1138 24.2925C36.7624 24.2925 34.906 25.6512 34.906 27.3722C34.906 29.0933 36.7624 30.452 39.1138 30.452ZM43.1979 36.7021C43.9404 34.5281 41.589 32.4448 38.495 32.4448H34.906C34.1634 32.4448 33.6684 32.8071 33.6684 33.3506C33.6684 33.5317 33.7922 33.7129 33.9159 33.8941C34.5347 34.347 34.906 34.981 34.6585 35.6151L32.8021 41.2311C32.0595 43.4051 34.411 45.579 37.5049 45.579H41.0939C41.8365 45.579 42.3315 45.2167 42.3315 44.6732C42.3315 44.4921 42.2078 44.3109 42.084 44.1297C41.4652 43.6768 41.0939 43.0428 41.3415 42.4087L43.1979 36.7021Z" fill="#231F20"/>
</g>
<path d="M76.417 29.244V30.916C77.7977 30.9413 78.887 31.1883 79.685 31.657C80.4957 32.113 81.072 32.721 81.414 33.481C81.7687 34.2283 81.946 35.058 81.946 35.97C81.946 36.5653 81.851 37.167 81.661 37.775C81.4837 38.3703 81.186 38.915 80.768 39.409C80.35 39.8903 79.7863 40.2893 79.077 40.606C78.3677 40.91 77.481 41.0747 76.417 41.1V43.19H74.384V41.1C73.3073 41.0747 72.408 40.91 71.686 40.606C70.9767 40.2893 70.413 39.8777 69.995 39.371C69.5897 38.8643 69.2983 38.3197 69.121 37.737C68.9437 37.1417 68.855 36.5527 68.855 35.97C68.855 35.2987 68.95 34.6653 69.14 34.07C69.3427 33.4747 69.653 32.9427 70.071 32.474C70.5017 32.0053 71.0717 31.6317 71.781 31.353C72.4903 31.0743 73.358 30.9287 74.384 30.916V29.244H76.417ZM74.384 32.588C73.5227 32.626 72.8387 32.7907 72.332 33.082C71.8253 33.3607 71.4643 33.747 71.249 34.241C71.0337 34.7223 70.926 35.2923 70.926 35.951C70.926 36.6477 71.04 37.2557 71.268 37.775C71.5087 38.2817 71.8823 38.6807 72.389 38.972C72.8957 39.2507 73.5607 39.409 74.384 39.447V32.588ZM76.417 39.447C77.253 39.409 77.9243 39.2443 78.431 38.953C78.9377 38.6617 79.305 38.2563 79.533 37.737C79.761 37.2177 79.875 36.6223 79.875 35.951C79.875 35.2923 79.7673 34.716 79.552 34.222C79.3493 33.728 78.9947 33.3417 78.488 33.063C77.9813 32.7843 77.291 32.626 76.417 32.588V39.447ZM92.8576 37.87C92.8576 38.7187 92.75 39.4723 92.5346 40.131C92.3193 40.7897 92.009 41.347 91.6036 41.803C91.211 42.259 90.7296 42.6073 90.1596 42.848C89.5896 43.076 88.95 43.19 88.2406 43.19C87.5946 43.19 86.993 43.076 86.4356 42.848C85.8783 42.6073 85.397 42.259 84.9916 41.803C84.5863 41.347 84.2696 40.7897 84.0416 40.131C83.8263 39.4723 83.7186 38.7123 83.7186 37.851C83.7186 36.7237 83.9023 35.7673 84.2696 34.982C84.637 34.1967 85.1626 33.6013 85.8466 33.196C86.5433 32.778 87.3666 32.569 88.3166 32.569C89.2033 32.569 89.9886 32.778 90.6726 33.196C91.3566 33.6013 91.8886 34.1967 92.2686 34.982C92.6613 35.7673 92.8576 36.73 92.8576 37.87ZM85.8466 37.87C85.8466 38.63 85.929 39.2887 86.0936 39.846C86.271 40.3907 86.537 40.8087 86.8916 41.1C87.259 41.3913 87.7213 41.537 88.2786 41.537C88.8486 41.537 89.311 41.3913 89.6656 41.1C90.033 40.8087 90.299 40.3907 90.4636 39.846C90.641 39.2887 90.7296 38.63 90.7296 37.87C90.7296 37.0847 90.641 36.426 90.4636 35.894C90.2863 35.362 90.0203 34.9567 89.6656 34.678C89.311 34.3867 88.8423 34.241 88.2596 34.241C87.411 34.241 86.7966 34.5577 86.4166 35.191C86.0366 35.8243 85.8466 36.7173 85.8466 37.87ZM100.138 32.569C101.291 32.569 102.215 33.0123 102.912 33.899C103.609 34.7857 103.957 36.1093 103.957 37.87C103.957 39.0227 103.792 39.998 103.463 40.796C103.146 41.594 102.697 42.1957 102.114 42.601C101.531 42.9937 100.854 43.19 100.081 43.19C99.6122 43.19 99.1942 43.1267 98.8269 43C98.4596 42.8607 98.1492 42.6833 97.8959 42.468C97.6552 42.24 97.4399 41.9993 97.2499 41.746H97.1359C97.1612 41.974 97.1866 42.2463 97.2119 42.563C97.2372 42.867 97.2499 43.1393 97.2499 43.38V47.56H95.1979V32.759H96.8699L97.1549 34.127H97.2499C97.4399 33.8483 97.6616 33.5887 97.9149 33.348C98.1809 33.1073 98.4912 32.9173 98.8459 32.778C99.2132 32.6387 99.6439 32.569 100.138 32.569ZM99.5869 34.222C99.0296 34.222 98.5799 34.3487 98.2379 34.602C97.8959 34.8427 97.6426 35.21 97.4779 35.704C97.3259 36.1853 97.2499 36.7997 97.2499 37.547V37.851C97.2499 38.6363 97.3196 39.3077 97.4589 39.865C97.6109 40.4097 97.8579 40.8277 98.1999 41.119C98.5546 41.3977 99.0296 41.537 99.6249 41.537C100.132 41.537 100.55 41.385 100.879 41.081C101.208 40.7643 101.449 40.3273 101.601 39.77C101.766 39.2127 101.848 38.5667 101.848 37.832C101.848 36.7173 101.658 35.837 101.278 35.191C100.911 34.545 100.347 34.222 99.5869 34.222ZM117.389 32.759V43H115.508V36.92C115.508 36.578 115.514 36.236 115.527 35.894C115.552 35.5393 115.584 35.2037 115.622 34.887H115.565L112.639 43H111.024L108.155 34.887H108.098C108.123 35.2037 108.142 35.5393 108.155 35.894C108.168 36.236 108.174 36.597 108.174 36.977V43H106.312V32.759H109.105L111.841 40.606L114.615 32.759H117.389ZM124.16 32.569C125.363 32.569 126.269 32.854 126.877 33.424C127.498 33.9813 127.808 34.8617 127.808 36.065V43H126.345L125.946 41.575H125.87C125.579 41.9423 125.287 42.2463 124.996 42.487C124.717 42.7277 124.388 42.905 124.008 43.019C123.641 43.133 123.185 43.19 122.64 43.19C122.07 43.19 121.557 43.0823 121.101 42.867C120.645 42.639 120.284 42.297 120.018 41.841C119.752 41.3723 119.619 40.7897 119.619 40.093C119.619 39.0543 119.986 38.2627 120.721 37.718C121.468 37.1733 122.602 36.8757 124.122 36.825L125.756 36.768V36.198C125.756 35.438 125.598 34.906 125.281 34.602C124.977 34.298 124.546 34.146 123.989 34.146C123.52 34.146 123.058 34.222 122.602 34.374C122.146 34.526 121.703 34.7097 121.272 34.925L120.645 33.462C121.114 33.2087 121.646 32.9997 122.241 32.835C122.849 32.6577 123.489 32.569 124.16 32.569ZM124.521 38.117C123.482 38.1677 122.76 38.364 122.355 38.706C121.95 39.0353 121.747 39.504 121.747 40.112C121.747 40.644 121.886 41.0303 122.165 41.271C122.456 41.5117 122.83 41.632 123.286 41.632C123.983 41.632 124.565 41.4103 125.034 40.967C125.515 40.5237 125.756 39.8587 125.756 38.972V38.079L124.521 38.117ZM137.914 34.374H134.741V43H132.708V34.374H129.573V32.759H137.914V34.374Z" fill="black"/>
<defs>
<clipPath id="clip0_44_186">
<rect width="10.6433" height="21.2866" fill="white" transform="translate(32.6783 24.2925)"/>
</clipPath>
</defs>
</svg>
