<svg width="23" height="24" viewBox="0 0 23 24" fill="none" xmlns="http://www.w3.org/2000/svg">
<path d="M21.4416 12C21.4416 17.7681 16.9667 22.4 11.4999 22.4C6.0331 22.4 1.55825 17.7681 1.55825 12C1.55825 6.23192 6.0331 1.6 11.4999 1.6C16.9667 1.6 21.4416 6.23192 21.4416 12Z" stroke="#231F20" stroke-width="1.2"/>
<g clip-path="url(#clip0_263_1273)">
<path d="M12.0807 8.9821C13.3065 8.9821 14.2742 8.24301 14.2742 7.30684C14.2742 6.37067 13.3065 5.63159 12.0807 5.63159C10.8549 5.63159 9.88721 6.37067 9.88721 7.30684C9.88721 8.24301 10.8549 8.9821 12.0807 8.9821ZM14.2097 12.3819C14.5968 11.1993 13.371 10.0661 11.7581 10.0661H9.88721C9.50012 10.0661 9.24206 10.2632 9.24206 10.5588C9.24206 10.6573 9.30658 10.7559 9.37109 10.8544C9.69366 11.1008 9.88721 11.4457 9.75818 11.7906L8.79046 14.8455C8.40337 16.028 9.62915 17.2105 11.242 17.2105H13.1129C13.5 17.2105 13.7581 17.0135 13.7581 16.7178C13.7581 16.6193 13.6936 16.5207 13.629 16.4222C13.3065 16.1758 13.1129 15.8309 13.242 15.486L14.2097 12.3819Z" fill="#231F20"/>
</g>
<defs>
<clipPath id="clip0_263_1273">
<rect width="5.54825" height="11.5789" fill="white" transform="translate(8.72583 5.63159)"/>
</clipPath>
</defs>
</svg>
