<svg width="261" height="72" viewBox="0 0 261 72" fill="none" xmlns="http://www.w3.org/2000/svg">
<rect x="0.5" y="0.5" width="260" height="71" stroke="#231F20"/>
<path d="M246.08 33L235.52 40L225.92 33" stroke="#231F20" stroke-width="2"/>
<circle cx="38.0001" cy="36.0001" r="19.2222" stroke="#231F20" stroke-width="2"/>
<g clip-path="url(#clip0_63_1087)">
<path d="M41.6109 35.1333L37.5665 32.9667C36.6998 32.5333 36.6998 31.5222 36.6998 31.3778C36.6998 31.0889 36.9887 30.2222 37.9998 30.2222C39.2998 30.0778 40.3109 30.6556 40.8887 31.8111C41.322 32.9667 42.622 33.4 43.7776 32.9667C44.9332 32.5333 45.3665 31.2333 44.9332 30.0778C44.2109 28.4889 42.9109 27.3333 41.4665 26.6111V25.1667C41.4665 24.0111 40.5998 23 39.2998 23C37.9998 23 37.1332 24.0111 37.1332 25.1667V25.8889C34.822 26.3222 32.9443 28.0556 32.5109 30.5111C32.0776 33.1111 33.2332 35.7111 35.5443 36.8667L39.5887 38.8889C40.3109 39.3222 40.4554 40.0444 40.4554 40.4778C40.4554 40.7667 40.1665 41.4889 39.2998 41.6333H39.1554C37.9998 41.7778 36.8443 41.0556 36.4109 40.0444C35.9776 38.8889 34.6776 38.4556 33.522 38.8889C32.3665 39.3222 31.9332 40.6222 32.3665 41.7778C33.2332 43.8 35.1109 45.2444 37.1332 45.8222V46.8333C37.1332 47.9889 38.1443 49 39.2998 49C40.4554 49 41.4665 47.9889 41.4665 46.8333V45.5333C43.1998 44.8111 44.3554 43.2222 44.6443 41.2C45.222 38.7444 43.922 36.2889 41.6109 35.1333Z" fill="#231F20"/>
</g>
<path d="M69.653 43V29.434H79.457V43H77.386V31.201H71.762V43H69.653ZM90.5793 43H88.4893V34.374H85.8673C85.7406 35.9447 85.5886 37.2937 85.4113 38.421C85.2339 39.5357 85.0059 40.4413 84.7273 41.138C84.4613 41.8347 84.1256 42.3477 83.7203 42.677C83.3276 42.9937 82.8589 43.152 82.3143 43.152C82.1243 43.152 81.9343 43.133 81.7443 43.095C81.5543 43.0697 81.3896 43.0253 81.2503 42.962V41.423C81.3516 41.4483 81.4529 41.4737 81.5543 41.499C81.6556 41.5117 81.7569 41.518 81.8583 41.518C82.0863 41.518 82.2953 41.4167 82.4853 41.214C82.6753 41.0113 82.8463 40.6947 82.9983 40.264C83.1629 39.8333 83.3086 39.276 83.4353 38.592C83.5746 37.8953 83.6949 37.0657 83.7963 36.103C83.8976 35.1403 83.9863 34.0257 84.0623 32.759H90.5793V43ZM97.3298 32.569C98.5331 32.569 99.4388 32.854 100.047 33.424C100.667 33.9813 100.978 34.8617 100.978 36.065V43H99.5148L99.1158 41.575H99.0398C98.7484 41.9423 98.4571 42.2463 98.1658 42.487C97.8871 42.7277 97.5578 42.905 97.1778 43.019C96.8104 43.133 96.3544 43.19 95.8098 43.19C95.2398 43.19 94.7268 43.0823 94.2708 42.867C93.8148 42.639 93.4538 42.297 93.1878 41.841C92.9218 41.3723 92.7888 40.7897 92.7888 40.093C92.7888 39.0543 93.1561 38.2627 93.8908 37.718C94.6381 37.1733 95.7718 36.8757 97.2918 36.825L98.9258 36.768V36.198C98.9258 35.438 98.7674 34.906 98.4508 34.602C98.1468 34.298 97.7161 34.146 97.1588 34.146C96.6901 34.146 96.2278 34.222 95.7718 34.374C95.3158 34.526 94.8724 34.7097 94.4418 34.925L93.8148 33.462C94.2834 33.2087 94.8154 32.9997 95.4108 32.835C96.0188 32.6577 96.6584 32.569 97.3298 32.569ZM97.6908 38.117C96.6521 38.1677 95.9301 38.364 95.5248 38.706C95.1194 39.0353 94.9168 39.504 94.9168 40.112C94.9168 40.644 95.0561 41.0303 95.3348 41.271C95.6261 41.5117 95.9998 41.632 96.4558 41.632C97.1524 41.632 97.7351 41.4103 98.2038 40.967C98.6851 40.5237 98.9258 39.8587 98.9258 38.972V38.079L97.6908 38.117ZM111.084 34.374H107.911V43H105.878V34.374H102.743V32.759H111.084V34.374ZM114.988 32.759V36.92H119.529V32.759H121.581V43H119.529V38.535H114.988V43H112.936V32.759H114.988ZM133.084 37.87C133.084 38.7187 132.977 39.4723 132.761 40.131C132.546 40.7897 132.236 41.347 131.83 41.803C131.438 42.259 130.956 42.6073 130.386 42.848C129.816 43.076 129.177 43.19 128.467 43.19C127.821 43.19 127.22 43.076 126.662 42.848C126.105 42.6073 125.624 42.259 125.218 41.803C124.813 41.347 124.496 40.7897 124.268 40.131C124.053 39.4723 123.945 38.7123 123.945 37.851C123.945 36.7237 124.129 35.7673 124.496 34.982C124.864 34.1967 125.389 33.6013 126.073 33.196C126.77 32.778 127.593 32.569 128.543 32.569C129.43 32.569 130.215 32.778 130.899 33.196C131.583 33.6013 132.115 34.1967 132.495 34.982C132.888 35.7673 133.084 36.73 133.084 37.87ZM126.073 37.87C126.073 38.63 126.156 39.2887 126.32 39.846C126.498 40.3907 126.764 40.8087 127.118 41.1C127.486 41.3913 127.948 41.537 128.505 41.537C129.075 41.537 129.538 41.3913 129.892 41.1C130.26 40.8087 130.526 40.3907 130.69 39.846C130.868 39.2887 130.956 38.63 130.956 37.87C130.956 37.0847 130.868 36.426 130.69 35.894C130.513 35.362 130.247 34.9567 129.892 34.678C129.538 34.3867 129.069 34.241 128.486 34.241C127.638 34.241 127.023 34.5577 126.643 35.191C126.263 35.8243 126.073 36.7173 126.073 37.87ZM145.459 29.434L140.709 43H138.771L143.521 29.434H145.459ZM161.957 43H159.848V36.806H153.996V43H151.887V29.434H153.996V35.058H159.848V29.434H161.957V43ZM168.951 32.569C169.8 32.569 170.534 32.759 171.155 33.139C171.776 33.5063 172.251 34.0383 172.58 34.735C172.922 35.4317 173.093 36.255 173.093 37.205V38.307H166.652C166.677 39.3583 166.931 40.1627 167.412 40.72C167.893 41.2773 168.571 41.556 169.445 41.556C170.066 41.556 170.617 41.499 171.098 41.385C171.592 41.2583 172.092 41.0747 172.599 40.834V42.506C172.118 42.734 171.624 42.905 171.117 43.019C170.623 43.133 170.021 43.19 169.312 43.19C168.387 43.19 167.564 42.9937 166.842 42.601C166.12 42.2083 165.556 41.6257 165.151 40.853C164.746 40.0677 164.543 39.105 164.543 37.965C164.543 36.8123 164.727 35.837 165.094 35.039C165.461 34.241 165.974 33.633 166.633 33.215C167.304 32.7843 168.077 32.569 168.951 32.569ZM168.951 34.127C168.305 34.127 167.786 34.3613 167.393 34.83C167 35.2987 166.772 35.9637 166.709 36.825H171.06C171.06 36.293 170.984 35.8243 170.832 35.419C170.68 35.0137 170.446 34.697 170.129 34.469C169.825 34.241 169.432 34.127 168.951 34.127ZM182.668 34.374H179.495V43H177.462V34.374H174.327V32.759H182.668V34.374Z" fill="black"/>
<defs>
<clipPath id="clip0_63_1087">
<rect width="12.7111" height="26" fill="white" transform="translate(32.2222 23)"/>
</clipPath>
</defs>
</svg>
