<svg width="23" height="24" viewBox="0 0 23 24" fill="none" xmlns="http://www.w3.org/2000/svg">
<path d="M21.4416 12C21.4416 17.7681 16.9667 22.4 11.4999 22.4C6.0331 22.4 1.55825 17.7681 1.55825 12C1.55825 6.23192 6.0331 1.6 11.4999 1.6C16.9667 1.6 21.4416 6.23192 21.4416 12Z" stroke="#231F20" stroke-width="1.2"/>
<g clip-path="url(#clip0_263_1281)">
<path d="M13.3297 11.5333L10.8903 10.3667C10.3676 10.1333 10.3676 9.58889 10.3676 9.51111C10.3676 9.35556 10.5418 8.88889 11.1517 8.88889C11.9358 8.81111 12.5456 9.12222 12.8941 9.74444C13.1555 10.3667 13.9396 10.6 14.6365 10.3667C15.3335 10.1333 15.5949 9.43333 15.3335 8.81111C14.8979 7.95556 14.1138 7.33333 13.2426 6.94444V6.16667C13.2426 5.54444 12.7199 5 11.9358 5C11.1517 5 10.629 5.54444 10.629 6.16667V6.55556C9.23502 6.78889 8.10244 7.72222 7.84108 9.04444C7.57972 10.4444 8.27669 11.8444 9.67062 12.4667L12.11 13.5556C12.5456 13.7889 12.6327 14.1778 12.6327 14.4111C12.6327 14.5667 12.4585 14.9556 11.9358 15.0333H11.8487C11.1517 15.1111 10.4547 14.7222 10.1934 14.1778C9.93199 13.5556 9.1479 13.3222 8.45093 13.5556C7.75396 13.7889 7.49259 14.4889 7.75396 15.1111C8.27669 16.2 9.40926 16.9778 10.629 17.2889V17.8333C10.629 18.4556 11.2388 19 11.9358 19C12.6327 19 13.2426 18.4556 13.2426 17.8333V17.1333C14.288 16.7444 14.985 15.8889 15.1593 14.8C15.5077 13.4778 14.7237 12.1556 13.3297 11.5333Z" fill="#231F20"/>
</g>
<defs>
<clipPath id="clip0_263_1281">
<rect width="7.66667" height="14" fill="white" transform="translate(7.66675 5)"/>
</clipPath>
</defs>
</svg>
