<svg width="34" height="34" viewBox="0 0 34 34" fill="none" xmlns="http://www.w3.org/2000/svg">
<path d="M14.7252 25.3655H18.0367V17.1105H20.3501L20.5947 14.35H18.0367C18.0367 14.35 18.0367 13.3181 18.0367 12.7792C18.0367 12.1285 18.1689 11.8722 18.8034 11.8722C19.3124 11.8722 20.5947 11.8722 20.5947 11.8722V9C20.5947 9 18.7043 9 18.3011 9C15.8356 9 14.7252 10.0779 14.7252 12.1482C14.7252 13.9491 14.7252 14.35 14.7252 14.35H13V17.1499H14.7252V25.3655Z" fill="white"/>
<path d="M17 33C8.16315 33 1 25.8368 1 17C1 8.16315 8.16315 1 17 1C25.8368 1 33 8.16315 33 17C33 25.8368 25.8368 33 17 33Z" stroke="white" stroke-width="0.4321" stroke-miterlimit="10"/>
</svg>
