<svg width="34" height="34" viewBox="0 0 34 34" fill="none" xmlns="http://www.w3.org/2000/svg">
<path d="M17.4625 11.3408C19.4586 11.3408 19.69 11.3474 20.4765 11.3868C21.2036 11.4197 21.6002 11.538 21.8646 11.6431C22.2149 11.7746 22.4595 11.9389 22.7239 12.1952C22.9883 12.4581 23.1469 12.7013 23.2791 13.0496C23.3783 13.3125 23.5038 13.7069 23.5369 14.4299C23.5699 15.212 23.5832 15.4486 23.5832 17.4269C23.5832 19.4118 23.5765 19.6419 23.5369 20.424C23.5038 21.147 23.3849 21.5413 23.2791 21.8042C23.1469 22.1526 22.9817 22.3957 22.7239 22.6586C22.4595 22.9215 22.2149 23.0793 21.8646 23.2107C21.6002 23.3093 21.2036 23.4342 20.4765 23.4671C19.69 23.4999 19.452 23.5131 17.4625 23.5131C15.4663 23.5131 15.235 23.5065 14.4484 23.4671C13.7213 23.4342 13.3247 23.3159 13.0603 23.2107C12.71 23.0793 12.4655 22.915 12.2011 22.6586C11.9367 22.3957 11.778 22.1526 11.6458 21.8042C11.5467 21.5413 11.4211 21.147 11.3881 20.424C11.355 19.6419 11.3418 19.4052 11.3418 17.4269C11.3418 15.442 11.3484 15.212 11.3881 14.4299C11.4211 13.7069 11.5401 13.3125 11.6458 13.0496C11.778 12.7013 11.9433 12.4581 12.2011 12.1952C12.4655 11.9323 12.71 11.7746 13.0603 11.6431C13.3247 11.5445 13.7213 11.4197 14.4484 11.3868C15.2284 11.3474 15.4663 11.3408 17.4625 11.3408ZM17.4625 10C15.4333 10 15.1821 10.0066 14.3823 10.046C13.5891 10.0789 13.0471 10.2103 12.5712 10.3878C12.0821 10.5784 11.6657 10.8281 11.2493 11.2422C10.8328 11.6563 10.5817 12.0703 10.39 12.5567C10.2049 13.0299 10.0793 13.5689 10.0463 14.3576C10.0066 15.1463 10 15.4026 10 17.4204C10 19.4381 10.0066 19.6879 10.0463 20.4831C10.0793 21.2718 10.2115 21.8108 10.39 22.284C10.5817 22.7704 10.8328 23.1844 11.2493 23.5985C11.6657 24.0126 12.0821 24.2623 12.5712 24.4529C13.0471 24.637 13.5891 24.7618 14.3823 24.8013C15.1755 24.8341 15.4333 24.8473 17.4625 24.8473C19.4917 24.8473 19.7429 24.8407 20.5426 24.8013C21.3358 24.7684 21.8778 24.637 22.3537 24.4529C22.8429 24.2623 23.2593 24.0126 23.6757 23.5985C24.0921 23.1844 24.3433 22.7704 24.535 22.284C24.72 21.8108 24.8456 21.2718 24.8853 20.4831C24.9183 19.6944 24.9316 19.4381 24.9316 17.4204C24.9316 15.4026 24.9249 15.1528 24.8853 14.3576C24.8522 13.5689 24.72 13.0299 24.535 12.5567C24.3433 12.0703 24.0921 11.6563 23.6757 11.2422C23.2593 10.8281 22.8429 10.5784 22.3537 10.3878C21.8778 10.2037 21.3358 10.0789 20.5426 10.046C19.7429 10.0131 19.4917 10 17.4625 10Z" fill="white"/>
<path d="M17.4626 13.6157C15.3475 13.6157 13.6289 15.3246 13.6289 17.4278C13.6289 19.531 15.3475 21.2398 17.4626 21.2398C19.5777 21.2398 21.2963 19.531 21.2963 17.4278C21.2963 15.3246 19.5777 13.6157 17.4626 13.6157ZM17.4626 19.899C16.0878 19.899 14.9773 18.7883 14.9773 17.4278C14.9773 16.0607 16.0944 14.9565 17.4626 14.9565C18.8374 14.9565 19.9479 16.0673 19.9479 17.4278C19.9479 18.7949 18.8374 19.899 17.4626 19.899Z" fill="white"/>
<path d="M22.3406 13.4637C22.3406 13.9566 21.9374 14.3575 21.4417 14.3575C20.9459 14.3575 20.5427 13.9566 20.5427 13.4637C20.5427 12.9707 20.9459 12.5698 21.4417 12.5698C21.944 12.5698 22.3406 12.9707 22.3406 13.4637Z" fill="white"/>
<path d="M17 33C8.16315 33 1 25.8368 1 17C1 8.16315 8.16315 1 17 1C25.8368 1 33 8.16315 33 17C33 25.8368 25.8368 33 17 33Z" stroke="white" stroke-width="0.4321" stroke-miterlimit="10"/>
</svg>
