<svg width="34" height="34" viewBox="0 0 34 34" fill="none" xmlns="http://www.w3.org/2000/svg">
<path d="M17 33C8.16315 33 1 25.8368 1 17C1 8.16315 8.16315 1 17 1C25.8368 1 33 8.16315 33 17C33 25.8368 25.8368 33 17 33Z" stroke="white" stroke-width="0.4321" stroke-miterlimit="10"/>
<path d="M13.1016 13.8257H10.1675V23.31H13.1016V13.8257Z" fill="white"/>
<path d="M11.6207 12.5849C12.5781 12.5849 13.3564 11.7997 13.3564 10.8354C13.3564 9.87113 12.5781 9.08594 11.6207 9.08594C10.6633 9.08594 9.88501 9.87113 9.88501 10.8354C9.88501 11.7997 10.6633 12.5849 11.6207 12.5849Z" fill="white"/>
<path d="M17.7992 18.3358C17.7992 16.9996 18.4122 16.2075 19.59 16.2075C20.6714 16.2075 21.1879 16.972 21.1879 18.3358C21.1879 19.6995 21.1879 23.3156 21.1879 23.3156H24.1083C24.1083 23.3156 24.1083 19.8511 24.1083 17.3095C24.1083 14.768 22.6688 13.542 20.6576 13.542C18.6464 13.542 17.7992 15.1124 17.7992 15.1124V13.8313H14.9822V23.3156H17.7992C17.7992 23.3156 17.7992 19.796 17.7992 18.3358Z" fill="white"/>
</svg>
