<svg width="105" height="48" viewBox="0 0 105 48" fill="none" xmlns="http://www.w3.org/2000/svg">
<path d="M15.3872 18.7234C15.3872 22.254 13.7624 26.8611 7.71927 26.8611C1.67615 26.8611 0 22.2989 0 18.8131C0 14.2956 2.37615 10.6369 7.62936 10.6369C14.0193 10.6369 15.3872 15.5451 15.3872 18.7234ZM3.23028 18.749C3.23028 19.9536 3.40367 21.1839 4.00092 22.2348C4.74587 23.574 6.15229 24.3429 7.67431 24.3429C8.68257 24.3429 12.1569 23.8623 12.1569 18.749C12.1569 15.6797 10.7954 13.1551 7.69358 13.1551C6.48624 13.1551 3.23028 13.6805 3.23028 18.749Z" fill="white"/>
<path d="M21.2954 24.2339C21.2954 24.7849 21.3404 25.8102 20.8972 26.342C20.6789 26.5855 20.3899 26.8674 19.6899 26.8674C19.0991 26.8674 18.5275 26.515 18.3284 26.0985C18.1294 25.6179 18.1294 25.2655 18.1294 24.2339V13.5715C18.1294 12.2323 18.1294 11.8606 18.611 11.3352C19.0092 10.8995 19.6899 10.8995 20.3899 10.8995H24.2367C25.3798 10.8995 26.7413 11.034 27.467 11.316C29.9266 12.2835 30.1064 14.6928 30.1064 15.5258C30.1064 17.3456 29.445 19.1013 27.422 19.9792C26.5679 20.3508 25.3349 20.4854 24.2367 20.4854H21.289V24.2339H21.2954ZM21.2954 13.3536V18.0248H23.4725C24.4165 18.0248 26.8761 18.0889 26.8761 15.6796C26.8761 14.8018 26.478 14.1033 25.8229 13.706C25.2706 13.3793 24.1532 13.3536 23.4725 13.3536H21.2954Z" fill="white"/>
<path d="M35.9569 17.1918H42.045C42.8991 17.1918 43.3422 17.2111 43.6505 17.5186C43.8239 17.6916 44.0486 17.98 44.0486 18.3965C44.0486 18.7233 43.8945 19.0565 43.6761 19.2743C43.3486 19.6011 42.8862 19.646 42.0514 19.646H35.9633V24.1442H42.8349C43.6055 24.1442 43.9138 24.0993 44.2862 24.2787C44.6395 24.4325 44.922 24.8682 44.922 25.3552C44.922 25.7717 44.7037 26.1434 44.4404 26.342C44.0872 26.6047 43.5862 26.6047 42.8349 26.6047H35.4495C34.0239 26.6047 33.7541 26.6047 33.2532 26.1434C32.7908 25.7077 32.7908 25.2655 32.7908 23.9519V13.5715C32.7908 12.1233 32.7908 11.8606 33.2532 11.3801C33.7156 10.8995 34.1073 10.8995 35.4495 10.8995H42.5908C43.4899 10.8995 43.933 10.8995 44.2606 11.2263C44.4147 11.3801 44.633 11.6876 44.633 12.1233C44.633 12.4501 44.4982 12.7833 44.2606 13.0204C43.933 13.3472 43.4706 13.3472 42.5908 13.3472H35.9569V17.1918Z" fill="white"/>
<path d="M57.6954 12.4758C57.6954 12.3028 57.6954 11.5082 58.0679 11.1173C58.2862 10.8995 58.6394 10.6368 59.166 10.6368C59.5642 10.6368 59.9816 10.8098 60.2642 11.0981C60.6624 11.4954 60.6624 12.0657 60.6624 13.1358V23.638C60.6624 24.6696 60.8615 26.861 58.7743 26.861C57.7853 26.861 57.4578 26.4894 56.4238 24.9067L50.445 15.8526V24.3813C50.445 25.4578 50.4642 26.0024 50.0725 26.3997C49.8734 26.5983 49.5009 26.861 48.9743 26.861C48.5761 26.861 48.1587 26.7073 47.8761 26.3997C47.5037 25.9832 47.478 25.4321 47.478 24.3813V13.7701C47.478 12.1233 47.478 11.6428 48.1138 11.0917C48.3128 10.9187 48.7046 10.6304 49.3661 10.6304C50.0018 10.6304 50.3743 10.8738 50.7083 11.2647C50.8624 11.4377 51.2991 12.1169 51.5881 12.5334L57.6954 21.7861V12.4758Z" fill="white"/>
<path d="M81.9064 24.2339C81.9064 25.3745 81.9257 25.9447 81.5082 26.3805C81.2642 26.624 80.8725 26.861 80.3459 26.861C79.9284 26.861 79.4917 26.688 79.1578 26.3805C78.7211 25.9832 78.7404 25.3488 78.7404 24.2339V13.2639C78.7404 12.1233 78.7404 11.5531 79.1578 11.1366C79.4018 10.8931 79.7936 10.6304 80.3202 10.6304C80.7376 10.6304 81.1807 10.8034 81.4826 11.1109C81.9193 11.5467 81.9 12.1426 81.9 13.2575V24.2339H81.9064Z" fill="white"/>
<path d="M92.233 24.2339C92.233 25.3104 92.233 25.9896 91.7706 26.4061C91.5523 26.6047 91.1541 26.8674 90.6468 26.8674C90.2294 26.8674 89.7927 26.6944 89.4844 26.4061C89.0477 25.9896 89.067 25.3104 89.067 24.2339V13.3536H86.1642C85.2651 13.3536 84.6936 13.3985 84.3596 13.0268C84.1606 12.8282 83.9615 12.5655 83.9615 12.1298C83.9615 11.803 84.0963 11.4954 84.3339 11.2327C84.6871 10.861 85.2587 10.9059 86.1578 10.9059H95.1037C96.0028 10.9059 96.5743 10.861 96.9083 11.2327C97.1073 11.4313 97.3064 11.7133 97.3064 12.1298C97.3064 12.4822 97.1523 12.7897 96.9339 13.0268C96.5807 13.3985 96.0092 13.3536 95.1101 13.3536H92.233V24.2339Z" fill="white"/>
<path d="M86.5303 2.53745C92.5798 2.53745 97.8523 5.92071 100.55 10.8995C100.723 10.8995 100.916 10.8995 101.121 10.8995H103.382C100.492 4.47898 94.0248 0 86.5303 0C79.0358 0 72.5752 4.47898 69.6853 10.8995H72.5174C75.2083 5.92711 80.4807 2.53745 86.5303 2.53745Z" fill="#26A9DE"/>
<path d="M104.281 13.3536H101.616C102.155 14.9491 102.45 16.6536 102.45 18.4221C102.45 27.1814 95.3092 34.3068 86.5303 34.3068C77.7514 34.3068 70.6101 27.1814 70.6101 18.4221C70.6101 16.6472 70.9055 14.9427 71.445 13.3536H68.7798C68.3174 14.9684 68.0606 16.6664 68.0606 18.4221C68.0606 28.5783 76.345 36.8442 86.5239 36.8442C96.7028 36.8442 104.987 28.5783 104.987 18.4221C105 16.6664 104.743 14.9684 104.281 13.3536Z" fill="#26A9DE"/>
<path d="M36.7725 40.4838L34.0431 36.2996C33.5486 35.5499 33.2917 34.9604 33.2917 34.5246C33.2917 33.871 33.844 33.4033 34.5569 33.4033C35.2697 33.4033 35.5844 33.8006 36.3743 35.0629L38.5064 38.4974L40.7606 35.0629C41.9486 33.2495 41.9486 33.4033 42.5972 33.4033C43.2908 33.4033 43.8046 33.8967 43.8046 34.5054C43.8046 34.9219 43.5477 35.5114 43.0532 36.2419L40.2661 40.4005L43.2716 45.014C43.7661 45.7829 44.0229 46.3532 44.0229 46.7697C44.0229 47.4618 43.5284 47.9936 42.7193 47.9936C41.9294 47.9936 41.7688 47.7565 40.9404 46.4365L38.4486 42.5342L35.7771 46.5583C35.0064 47.7821 34.8073 48 34.0367 48C33.3046 48 32.9321 47.6027 32.9321 46.8146C32.9321 46.3212 33.1697 45.7317 33.645 45.0397L36.7725 40.4838Z" fill="white"/>
<path d="M54.3881 44.4309H48.6532L47.9789 46.2058C47.4073 47.686 47.2275 48 46.3798 48C45.6092 48 45.0183 47.3721 45.0183 46.7377C45.0183 46.4045 45.1596 45.9111 45.4165 45.2575L49.0514 36.0881C49.8028 34.0953 50.1174 33.4033 51.5046 33.4033C52.4358 33.4033 53.1229 33.8967 53.5211 34.8642L57.7147 45.1806C57.9908 45.8727 58.1321 46.3853 58.1321 46.6992C58.1321 47.3272 57.522 48 56.7257 48C55.878 48 55.6789 47.7052 55.0881 46.1674L54.3881 44.4309ZM49.3853 42.2203H53.6367L51.4853 36.4213L49.3853 42.2203Z" fill="white"/>
<path d="M63.1028 35.7869V39.3945H66.9174C69.8844 39.3945 72.055 40.6376 72.055 43.5338C72.055 44.4822 71.7982 45.2895 71.3037 45.9816C70.2954 47.3849 69.2679 47.7565 66.9174 47.7565H62.0174C60.7523 47.7565 60.2385 47.2247 60.2385 45.9816V35.4345C60.2385 34.153 60.8101 33.6404 62.0174 33.6404H69.589C70.5587 33.6404 71.0532 34.012 71.0532 34.7425C71.0532 35.2359 70.6807 35.7869 69.589 35.7869H63.1028ZM63.1028 45.6099H65.8706C66.8018 45.6099 67.4505 45.5523 67.8294 45.4497C68.5807 45.2511 69.2101 44.4822 69.2101 43.5146C69.2101 42.4702 68.7541 41.541 66.0055 41.541H63.1028V45.6099Z" fill="white"/>
</svg>
