<svg width="34" height="34" viewBox="0 0 34 34" fill="none" xmlns="http://www.w3.org/2000/svg">
<path d="M17 33C8.16315 33 1 25.8368 1 17C1 8.16315 8.16315 1 17 1C25.8368 1 33 8.16315 33 17C33 25.8368 25.8368 33 17 33Z" stroke="white" stroke-width="0.4321" stroke-miterlimit="10"/>
<path d="M22.8312 11.5607C22.7812 11.4216 22.7312 11.385 22.6455 11.3484C22.4527 11.2752 22.1314 11.385 22.1314 11.385C22.1314 11.385 10.7343 15.5872 10.0845 16.0484C9.94169 16.1509 9.89884 16.2095 9.87742 16.2754C9.76316 16.6048 10.1131 16.7512 10.1131 16.7512L13.048 17.7322C13.048 17.7322 13.1551 17.7468 13.198 17.7249C13.8692 17.293 19.9176 13.369 20.2676 13.2372C20.3247 13.2225 20.3604 13.2372 20.3532 13.2811C20.2104 13.7863 14.9547 18.5741 14.9547 18.5741C14.9547 18.5741 14.9332 18.5961 14.919 18.6327L14.9118 18.6254L14.6405 21.6196C14.6405 21.6196 14.5262 22.5347 15.4188 21.6196C16.0472 20.9753 16.6614 20.4336 16.9613 20.1701C17.9682 20.8875 19.0607 21.6782 19.5249 22.0881C19.7605 22.2931 19.9605 22.3297 20.1176 22.3224C20.5603 22.3077 20.6889 21.8026 20.6889 21.8026C20.6889 21.8026 22.7669 13.2299 22.8383 12.0878C22.8455 11.978 22.8526 11.9048 22.8526 11.8243C22.8597 11.7145 22.8455 11.612 22.8312 11.5607Z" fill="white"/>
</svg>
