<svg width="34" height="34" viewBox="0 0 34 34" fill="none" xmlns="http://www.w3.org/2000/svg">
<path d="M17 33C8.16315 33 1 25.8368 1 17C1 8.16315 8.16315 1 17 1C25.8368 1 33 8.16315 33 17C33 25.8368 25.8368 33 17 33Z" stroke="white" stroke-width="0.4321" stroke-miterlimit="10"/>
<path d="M9.13191 13.8045C9.85899 13.8045 11.4057 13.8045 11.9279 13.8045C12.0336 13.8045 12.1328 13.8702 12.179 13.9688C12.8202 15.3556 13.6068 16.6175 14.5453 17.7217C14.6247 17.8532 14.823 17.84 14.8824 17.6954C15.1799 16.9856 15.7219 15.2504 14.6709 14.0214C14.5784 13.9097 14.6181 13.7388 14.7503 13.6862C15.8144 13.2458 16.8588 13.1801 17.8701 13.6336C18.0816 13.7256 18.2204 13.9359 18.2204 14.1726L18.4584 17.7414C18.4584 17.8992 18.6038 18.024 18.7624 17.9912C19.9323 17.7414 20.6198 15.9997 21.3006 14.1857C21.3865 13.9622 21.598 13.8111 21.836 13.8111H24.4138C24.6253 13.8111 24.7972 13.9951 24.7575 14.2054C24.5063 15.4871 23.2042 17.163 22.5234 17.9649C22.2854 18.2409 22.2854 18.6484 22.5234 18.931L24.8236 21.6586C24.9888 21.8558 24.85 22.1516 24.5923 22.1516H21.6773C21.4394 22.1516 21.208 22.053 21.0494 21.8755L19.0136 20.1864C18.9078 20.0747 18.7095 20.0287 18.6104 20.1535C18.3592 20.4559 18.379 20.8371 18.2601 21.6915C18.2204 21.961 17.9824 22.1516 17.7114 22.1516H15.7153C15.4311 22.1516 15.1534 22.0924 14.8957 21.9741C13.7522 21.4352 10.6257 19.5226 8.87413 14.1726C8.80142 13.9951 8.94023 13.8045 9.13191 13.8045Z" fill="white"/>
</svg>
